<?xml version="1.0" encoding="utf-8"?>
<!-- Generator: Adobe Illustrator 24.1.2, SVG Export Plug-In . SVG Version: 6.00 Build 0)  -->
<svg version="1.1" id="Layer_1" xmlns="http://www.w3.org/2000/svg" xmlns:xlink="http://www.w3.org/1999/xlink" x="0px" y="0px"
	 viewBox="0 0 150 150" style="enable-background:new 0 0 150 150;" xml:space="preserve">
<style type="text/css">
	.st0{fill:#FFFFFF;}
</style>
<g id="color_index_0">
	<path class="st0" d="M85,14.5c0,5-4,9-9,9s-9-4-9-9s4-9,9-9C81,5.5,85,9.5,85,14.5L85,14.5z M142.4,77.1
		c0.1-23.7-12.4-45.7-32.8-57.8c-1.2-0.7-2.8-0.3-3.5,0.9s-0.3,2.8,0.9,3.5l0,0l0,0c29.5,17.7,39.1,56,21.4,85.5s-56,39.1-85.5,21.4
		s-39.1-56-21.4-85.5c5.3-8.8,12.7-16.2,21.5-21.5c1.2-0.7,1.6-2.3,0.9-3.5c-0.7-1.2-2.3-1.6-3.5-0.9l0,0
		C8.4,38.4-2,79.8,17.2,111.8s60.6,42.3,92.5,23.2C130,122.7,142.4,100.8,142.4,77.1z"/>
</g>
</svg>
