<svg id="Layer_1" data-name="Layer 1" xmlns="http://www.w3.org/2000/svg" viewBox="0 0 134.9216 139.0664"><g id="color_index_0" data-name="color index 0"><path d="M101.0466,30.4592a8.9924,8.9924,0,1,1-8.9924-8.9924A8.9944,8.9944,0,0,1,101.0466,30.4592Zm57.4142,62.6222A66.9174,66.9174,0,0,0,125.645,35.2707a2.5621,2.5621,0,1,0-2.6311,4.3971,61.77,61.77,0,0,1,30.329,53.4136A62.3519,62.3519,0,1,1,58.968,39.65a2.5621,2.5621,0,1,0-2.631-4.3971A67.4411,67.4411,0,1,0,158.4608,93.0814Z" transform="translate(-23.5392 -21.4668)"/></g></svg>