<?xml version="1.0" encoding="utf-8"?>
<!-- Generator: Adobe Illustrator 24.1.2, SVG Export Plug-In . SVG Version: 6.00 Build 0)  -->
<svg version="1.1" id="Layer_1" xmlns="http://www.w3.org/2000/svg" xmlns:xlink="http://www.w3.org/1999/xlink" x="0px" y="0px"
	 viewBox="0 0 150 150" style="enable-background:new 0 0 150 150;" xml:space="preserve">
<style type="text/css">
	.st0{stroke:#000000;stroke-miterlimit:10;}
	.st1{fill:#FFFFFF;}
</style>
<rect class="st0" width="150" height="150"/>
<g id="color_index_0">
	<path class="st1" d="M80.5,41.6c0,2.8-2.2,5-5,5s-5-2.2-5-5c0-2.8,2.2-5,5-5S80.5,38.8,80.5,41.6L80.5,41.6z M112.2,76.2
		c0.1-13.1-6.9-25.3-18.1-32c-0.7-0.4-1.5-0.2-1.9,0.5c-0.4,0.7-0.2,1.5,0.5,1.9l0,0l0,0c16.3,9.8,21.6,31,11.8,47.3
		s-31,21.6-47.3,11.8s-21.6-31-11.8-47.3c2.9-4.9,7-9,11.9-11.9c0.7-0.4,0.9-1.3,0.5-1.9c-0.4-0.7-1.3-0.9-1.9-0.5l0,0
		C38.2,54.8,32.4,77.7,43,95.4s33.5,23.4,51.1,12.8C105.4,101.4,112.2,89.3,112.2,76.2z"/>
</g>
</svg>
