<?xml version="1.0" encoding="utf-8"?>
<!-- Generator: Adobe Illustrator 24.1.2, SVG Export Plug-In . SVG Version: 6.00 Build 0)  -->
<svg version="1.1" id="final_svg" xmlns="http://www.w3.org/2000/svg" xmlns:xlink="http://www.w3.org/1999/xlink" x="0px" y="0px"
	 viewBox="0 0 360 70" style="enable-background:new 0 0 360 70;" xml:space="preserve">
<style type="text/css">
	.st0{fill:#FFFFFF;}
</style>
<g id="text_group" transform="translate(48.100063981542576, 379.247025)">
	<path class="st0" d="M-42.5-357.8L-42.5-357.8c0-2.7,0.6-5,1.7-6.9c1.1-1.9,2.5-3.6,4.3-4.8c1.7-1.3,3.7-2.2,5.9-2.8
		c2.2-0.6,4.5-0.9,6.7-0.9l0,0c2.5,0,5,0.4,7.5,1.1s5,2,7.6,3.8l0,0l-4.1,4.1c-1.9-1.3-3.7-2.2-5.6-2.7s-3.8-0.8-5.7-0.8l0,0
		c-1.5,0-3,0.2-4.5,0.5s-2.8,0.9-4.1,1.6c-1.2,0.8-2.2,1.7-3,3c-0.7,1.3-1.1,2.8-1.1,4.7l0,0c0,2.3,0.7,4,2.1,5.2
		c1.4,1.2,3.2,2.2,5.2,3c2.1,0.8,4.4,1.5,6.9,2.1s4.8,1.5,6.9,2.6s3.9,2.6,5.3,4.5s2.1,4.5,2.1,7.8l0,0c0,2.8-0.5,5.3-1.4,7.4
		c-0.9,2.2-2.2,4-3.9,5.5s-3.6,2.7-5.9,3.4c-2.3,0.8-4.8,1.2-7.5,1.2l0,0c-2.7,0-5.2-0.4-7.6-1.2c-2.5-0.8-4.9-2.1-7.4-3.9l0,0
		l4-4.1c1.9,1.3,3.9,2.2,5.8,2.7c1.9,0.5,3.7,0.8,5.6,0.8l0,0c1.4,0,2.9-0.3,4.4-0.8s2.8-1.3,4.1-2.3c1.2-1,2.2-2.3,3-3.7
		c0.8-1.5,1.2-3.2,1.2-5l0,0c0-2.3-0.7-4-2.1-5.2s-3.2-2.1-5.3-2.8c-2.1-0.7-4.4-1.3-6.9-1.9s-4.7-1.4-6.9-2.5
		c-2.1-1.1-3.9-2.7-5.3-4.7C-41.8-351.6-42.5-354.4-42.5-357.8z M35.5-315.1L5.2-345.3l30.3-28.1h7.6l-30.3,28.1l30.3,30.2H35.5z
		 M75.7-341.3l-23.6-32h7.4l19.1,25.4l18.9-25.4h7.5l-23.7,32v26.2h-5.7L75.7-341.3L75.7-341.3z M144.4-315.1h-5.8V-347h36.5v-26.3
		h5.7v58.2h-5.7v-26.2h-30.7V-315.1z M201-336.6L201-336.6v-36.7h5.7v37.5c0,3,0.5,5.6,1.4,7.5c1,1.9,2.2,3.5,3.6,4.6
		c1.5,1.1,3.1,1.9,4.8,2.3s3.5,0.6,5.1,0.6l0,0c1.9,0,3.7-0.2,5.7-0.6c1.9-0.5,3.6-1.2,5.2-2.3c1.6-1.1,2.8-2.7,3.8-4.6
		s1.5-4.5,1.5-7.5l0,0v-37.5h5.7v36.7c0,1.4-0.1,3-0.3,4.6s-0.5,3.2-1.1,4.8c-0.5,1.6-1.3,3.1-2.3,4.6s-2.3,2.8-3.9,3.9
		s-3.6,2-5.9,2.7c-2.3,0.6-5.1,1-8.3,1l0,0c-4.6,0-8.3-0.7-11-2.2c-2.7-1.4-4.8-3.2-6.3-5.4c-1.5-2.1-2.4-4.5-2.8-7
		C201.2-332.2,201-334.5,201-336.6z M291.6-315.1h-27.8v-5.7h27.7c0.2,0,0.8-0.1,1.7-0.3c0.9-0.2,1.9-0.6,3-1.3c1-0.6,2-1.7,2.8-3
		c0.8-1.4,1.2-3.2,1.2-5.6l0,0c0-2.4-0.4-4.3-1.2-5.6c-0.8-1.4-1.8-2.4-2.8-3.1s-2.1-1.1-3-1.3s-1.6-0.3-1.7-0.3l0,0H264v-5.7h23.1
		c0.2,0,0.8-0.1,1.7-0.3c0.9-0.2,1.9-0.6,2.9-1.4s1.9-1.8,2.7-3.2c0.8-1.4,1.2-3.3,1.2-5.7l0,0c0-2.4-0.5-4.3-1.3-5.7
		c-0.8-1.4-1.8-2.4-2.8-3s-2-1-2.9-1.2s-1.4-0.3-1.5-0.3l0,0H264v-5.6h23.1c0.1,0,0.3,0,0.7,0.1c0.4,0,1,0.1,1.6,0.3
		c0.6,0.1,1.4,0.3,2.2,0.6c0.8,0.3,1.7,0.7,2.5,1.2l0,0c0.8,0.5,1.6,1,2.4,1.8c0.8,0.7,1.6,1.6,2.3,2.7c0.6,1.1,1.2,2.4,1.7,3.9
		s0.6,3.3,0.6,5.4l0,0c0,2.8-0.4,5.2-1.2,7.2c-0.8,2-1.8,3.6-3,4.7l0,0c1.2,0.4,2.3,1,3.4,1.7s2.1,1.7,3,2.8
		c0.9,1.2,1.6,2.6,2.2,4.3c0.6,1.7,0.8,3.6,0.8,5.8l0,0c0,1.9-0.2,3.7-0.6,5.2c-0.5,1.5-1,2.8-1.7,3.8c-0.6,1.1-1.4,2-2.3,2.7
		c-0.8,0.8-1.7,1.4-2.5,1.8l0,0c-1.7,1-3.2,1.6-4.6,1.9C293-315.2,292.1-315.1,291.6-315.1L291.6-315.1z"/>
</g>
</svg>
