<?xml version="1.0" encoding="utf-8"?>
<!-- Generator: Adobe Illustrator 24.1.2, SVG Export Plug-In . SVG Version: 6.00 Build 0)  -->
<svg version="1.1" id="final_svg" xmlns="http://www.w3.org/2000/svg" xmlns:xlink="http://www.w3.org/1999/xlink" x="0px" y="0px"
	 viewBox="0 0 348.7 58.4" style="enable-background:new 0 0 348.7 58.4;" xml:space="preserve">
<g id="text_group" transform="translate(48.100063981542576, 379.247025)">
	<path d="M-48.1-363.6L-48.1-363.6c0-2.7,0.6-5,1.7-6.9c1.1-1.9,2.5-3.6,4.3-4.8c1.7-1.3,3.7-2.2,5.9-2.8c2.2-0.6,4.5-0.9,6.7-0.9
		l0,0c2.5,0,5,0.4,7.5,1.1s5,2,7.6,3.8l0,0l-4.1,4.1c-1.9-1.3-3.7-2.2-5.6-2.7c-1.9-0.5-3.8-0.8-5.7-0.8l0,0c-1.5,0-3,0.2-4.5,0.5
		s-2.8,0.9-4.1,1.6c-1.2,0.8-2.2,1.7-3,3c-0.7,1.3-1.1,2.8-1.1,4.7l0,0c0,2.3,0.7,4,2.1,5.2c1.4,1.2,3.2,2.2,5.2,3
		c2.1,0.8,4.4,1.5,6.9,2.1s4.8,1.5,6.9,2.6c2.1,1.1,3.9,2.6,5.3,4.5c1.4,1.9,2.1,4.5,2.1,7.8l0,0c0,2.8-0.5,5.3-1.4,7.4
		c-0.9,2.2-2.2,4-3.9,5.5s-3.6,2.7-5.9,3.4c-2.3,0.8-4.8,1.2-7.5,1.2l0,0c-2.7,0-5.2-0.4-7.6-1.2c-2.5-0.8-4.9-2.1-7.4-3.9l0,0
		l4-4.1c1.9,1.3,3.9,2.2,5.8,2.7c1.9,0.5,3.7,0.8,5.6,0.8l0,0c1.4,0,2.9-0.3,4.4-0.8s2.8-1.3,4.1-2.3c1.2-1,2.2-2.3,3-3.7
		c0.8-1.5,1.2-3.2,1.2-5l0,0c0-2.3-0.7-4-2.1-5.2c-1.4-1.2-3.2-2.1-5.3-2.8c-2.1-0.7-4.4-1.3-6.9-1.9s-4.7-1.4-6.9-2.5
		c-2.1-1.1-3.9-2.7-5.3-4.7C-47.4-357.4-48.1-360.2-48.1-363.6z M29.9-320.9l-30.3-30.2l30.3-28.1h7.6L7.2-351.1l30.3,30.2H29.9z
		 M70.1-347.1l-23.6-32h7.4L73-353.7l18.9-25.4h7.5l-23.7,32v26.2H70v-26.2H70.1z M138.8-320.9H133v-31.9h36.5v-26.3h5.7v58.2h-5.7
		v-26.2h-30.7V-320.9z M195.4-342.4L195.4-342.4v-36.7h5.7v37.5c0,3,0.5,5.6,1.4,7.5c1,1.9,2.2,3.5,3.6,4.6c1.5,1.1,3.1,1.9,4.8,2.3
		s3.5,0.6,5.1,0.6l0,0c1.9,0,3.7-0.2,5.7-0.6c1.9-0.5,3.6-1.2,5.2-2.3c1.6-1.1,2.8-2.7,3.8-4.6s1.5-4.5,1.5-7.5l0,0v-37.5h5.7v36.7
		c0,1.4-0.1,3-0.3,4.6c-0.2,1.6-0.5,3.2-1.1,4.8c-0.5,1.6-1.3,3.1-2.3,4.6s-2.3,2.8-3.9,3.9s-3.6,2-5.9,2.7c-2.3,0.6-5.1,1-8.3,1
		l0,0c-4.6,0-8.3-0.7-11-2.2c-2.7-1.4-4.8-3.2-6.3-5.4c-1.5-2.1-2.4-4.5-2.8-7C195.6-338,195.4-340.3,195.4-342.4z M286-320.9h-27.8
		v-5.7h27.7c0.2,0,0.8-0.1,1.7-0.3c0.9-0.2,1.9-0.6,3-1.3c1-0.6,2-1.7,2.8-3c0.8-1.4,1.2-3.2,1.2-5.6l0,0c0-2.4-0.4-4.3-1.2-5.6
		c-0.8-1.4-1.8-2.4-2.8-3.1s-2.1-1.1-3-1.3s-1.6-0.3-1.7-0.3l0,0h-27.6v-5.7h23.1c0.2,0,0.8-0.1,1.7-0.3c0.9-0.2,1.9-0.6,2.9-1.4
		s1.9-1.8,2.7-3.2c0.8-1.4,1.2-3.3,1.2-5.7l0,0c0-2.4-0.5-4.3-1.3-5.7c-0.8-1.4-1.8-2.4-2.8-3s-2-1-2.9-1.2s-1.4-0.3-1.5-0.3l0,0
		h-23.1v-5.6h23.1c0.1,0,0.3,0,0.7,0.1c0.4,0,1,0.1,1.6,0.3c0.6,0.1,1.4,0.3,2.2,0.6c0.8,0.3,1.7,0.7,2.5,1.2l0,0
		c0.8,0.5,1.6,1,2.4,1.8c0.8,0.7,1.6,1.6,2.3,2.7c0.6,1.1,1.2,2.4,1.7,3.9s0.6,3.3,0.6,5.4l0,0c0,2.8-0.4,5.2-1.2,7.2
		c-0.8,2-1.8,3.6-3,4.7l0,0c1.2,0.4,2.3,1,3.4,1.7s2.1,1.7,3,2.8c0.9,1.2,1.6,2.6,2.2,4.3c0.6,1.7,0.8,3.6,0.8,5.8l0,0
		c0,1.9-0.2,3.7-0.6,5.2c-0.5,1.5-1,2.8-1.7,3.8c-0.6,1.1-1.4,2-2.3,2.7c-0.8,0.8-1.7,1.4-2.5,1.8l0,0c-1.7,1-3.2,1.6-4.6,1.9
		C287.4-321,286.5-320.9,286-320.9L286-320.9z"/>
</g>
</svg>
