<svg id="final_svg" data-name="final svg" xmlns="http://www.w3.org/2000/svg" viewBox="0 0 443.5688 71.26"><g id="color_index_0" data-name="color index 0"><path d="M39.655,4.585A4.6025,4.6025,0,1,1,35.07,0,4.5782,4.5782,0,0,1,39.655,4.585ZM69.09,36.68A34.3739,34.3739,0,0,0,52.29,7.035a1.2791,1.2791,0,0,0-1.785.455,1.3091,1.3091,0,0,0,.455,1.785A31.9382,31.9382,0,1,1,2.59,36.645,31.6876,31.6876,0,0,1,18.13,9.275a1.3417,1.3417,0,0,0,.455-1.785A1.3091,1.3091,0,0,0,16.8,7.035,34.2562,34.2562,0,0,0,0,36.68a34.545,34.545,0,1,0,69.09,0Z"/></g><g id="text_group" data-name="text group"><path d="M94.8687,22.039h0a13.564,13.564,0,0,1,1.7-6.9,14.19,14.19,0,0,1,4.3-4.8,16.9431,16.9431,0,0,1,5.9-2.8,25.7264,25.7264,0,0,1,6.7-.9h0a27.7817,27.7817,0,0,1,7.5,1.1,25.7356,25.7356,0,0,1,7.6,3.8h0l-4.1,4.1a17.9824,17.9824,0,0,0-5.6-2.7,22.3942,22.3942,0,0,0-5.7-.8h0a22.9732,22.9732,0,0,0-4.5.5,14.5811,14.5811,0,0,0-4.1,1.6,9.546,9.546,0,0,0-3,3,9.6045,9.6045,0,0,0-1.1,4.7h0a6.4268,6.4268,0,0,0,2.1,5.2,18.6746,18.6746,0,0,0,5.2,3,56.3462,56.3462,0,0,0,6.9,2.1,29.8648,29.8648,0,0,1,6.9,2.6,15.3591,15.3591,0,0,1,5.3,4.5,12.8964,12.8964,0,0,1,2.1,7.8h0a18.7787,18.7787,0,0,1-1.4,7.4,14.5251,14.5251,0,0,1-3.9,5.5,15.7521,15.7521,0,0,1-5.9,3.4,22.6844,22.6844,0,0,1-7.5,1.2h0a23.724,23.724,0,0,1-7.6-1.2,26.4846,26.4846,0,0,1-7.4-3.9h0l4-4.1a18.9184,18.9184,0,0,0,5.8,2.7,21.6409,21.6409,0,0,0,5.6.8h0a14.1384,14.1384,0,0,0,4.4-.8,13.8954,13.8954,0,0,0,4.1-2.3,13.5463,13.5463,0,0,0,3-3.7,10.5507,10.5507,0,0,0,1.2-5h0a6.4269,6.4269,0,0,0-2.1-5.2,15.6814,15.6814,0,0,0-5.3-2.8c-2.1-.7-4.4-1.3-6.9-1.9a31.4794,31.4794,0,0,1-6.9-2.5,14.9145,14.9145,0,0,1-5.3-4.7C95.5687,28.239,94.8687,25.439,94.8687,22.039Zm78,42.7-30.3-30.2,30.3-28.1h7.6l-30.3,28.1,30.3,30.2Zm40.2-26.2-23.6-32h7.4l19.1,25.4,18.9-25.4h7.5l-23.7,32v26.2h-5.7v-26.2Zm68.7,26.2h-5.8v-31.9h36.5V6.539h5.7v58.2h-5.7v-26.2h-30.7Zm56.6-21.5h0V6.539h5.7v37.5a17.92,17.92,0,0,0,1.4,7.5,14.1945,14.1945,0,0,0,3.6,4.6,13.2894,13.2894,0,0,0,4.8,2.3,22.859,22.859,0,0,0,5.1.6h0a28.3342,28.3342,0,0,0,5.7-.6,16.2092,16.2092,0,0,0,5.2-2.3,12.3794,12.3794,0,0,0,3.8-4.6,16.4057,16.4057,0,0,0,1.5-7.5h0V6.539h5.7v36.7a37.9577,37.9577,0,0,1-.3,4.6,20.8015,20.8015,0,0,1-1.1,4.8,18.0079,18.0079,0,0,1-2.3,4.6,14.4675,14.4675,0,0,1-3.9,3.9,21.4849,21.4849,0,0,1-5.9,2.7,33.0759,33.0759,0,0,1-8.3,1h0c-4.6,0-8.3-.7-11-2.2a16.7707,16.7707,0,0,1-6.3-5.4,16.4145,16.4145,0,0,1-2.8-7A46.1443,46.1443,0,0,1,338.3687,43.239Zm90.6,21.5h-27.8v-5.7h27.7a11.9022,11.9022,0,0,0,1.7-.3,9.3955,9.3955,0,0,0,3-1.3,9.0739,9.0739,0,0,0,2.8-3,11.09,11.09,0,0,0,1.2-5.6h0a10.8386,10.8386,0,0,0-1.2-5.6,9.49,9.49,0,0,0-2.8-3.1,8.5455,8.5455,0,0,0-3-1.3,14.9715,14.9715,0,0,0-1.7-.3h-27.6v-5.7h23.1a11.9022,11.9022,0,0,0,1.7-.3,7.005,7.005,0,0,0,2.9-1.4,10.89,10.89,0,0,0,2.7-3.2,11.5014,11.5014,0,0,0,1.2-5.7h0a11.44,11.44,0,0,0-1.3-5.7,8.188,8.188,0,0,0-2.8-3,9.9368,9.9368,0,0,0-2.9-1.2q-1.35-.3-1.5-.3h-23.1v-5.6h23.1a2.6386,2.6386,0,0,1,.7.1,5.4973,5.4973,0,0,1,1.6.3,12.2988,12.2988,0,0,1,2.2.6,14.2461,14.2461,0,0,1,2.5,1.2h0a12.523,12.523,0,0,1,2.4,1.8,12.5292,12.5292,0,0,1,2.3,2.7,23.9567,23.9567,0,0,1,1.7,3.9,17.4809,17.4809,0,0,1,.6,5.4h0a19.375,19.375,0,0,1-1.2,7.2,12.7024,12.7024,0,0,1-3,4.7h0a15.4416,15.4416,0,0,1,3.4,1.7,13.1617,13.1617,0,0,1,3,2.8,15.7737,15.7737,0,0,1,2.2,4.3,17.3221,17.3221,0,0,1,.8,5.8h0a20.6431,20.6431,0,0,1-.6,5.2,14.9417,14.9417,0,0,1-1.7,3.8,8.6854,8.6854,0,0,1-2.3,2.7,9.7746,9.7746,0,0,1-2.5,1.8h0a15.5036,15.5036,0,0,1-4.6,1.9,16.5886,16.5886,0,0,1-2.9.4Z"/></g></svg>