<?xml version="1.0" encoding="utf-8"?>
<!-- Generator: Adobe Illustrator 24.1.2, SVG Export Plug-In . SVG Version: 6.00 Build 0)  -->
<svg version="1.1" id="final_svg" xmlns="http://www.w3.org/2000/svg" xmlns:xlink="http://www.w3.org/1999/xlink" x="0px" y="0px"
	 viewBox="0 0 686 110.2" style="enable-background:new 0 0 686 110.2;" xml:space="preserve">
<style type="text/css">
	.st0{fill:#FFFFFF;}
</style>
<g id="color_index_0" transform="translate(258.70631589560514, 256.738025) scale(0.35)">
	<path class="st0" d="M-440.2-692.1c0,9.4-7.7,17.3-17.2,17.3c-9.4,0-17.3-7.7-17.3-17.3c0-9.6,7.7-17.2,17.3-17.2
		C-447.8-709.3-440.2-701.6-440.2-692.1z M-330.1-572.1c0-45.8-23.6-87.2-62.9-110.9c-2.2-1.4-5.4-0.7-6.7,1.7
		c-1.3,2.2-0.7,5.4,1.7,6.7c36.4,21.9,58.1,60.2,58.1,102.4c0,66-53.7,119.6-119.6,119.6c-66,0-119.6-53.7-119.6-119.6
		c0-42.3,21.7-80.5,58.1-102.4c2.2-1.3,3-4.5,1.7-6.7s-4.5-3.1-6.7-1.7c-39.4,23.6-62.9,65.1-62.9,110.9
		c0,71.4,58,129.4,129.4,129.4S-330.1-500.7-330.1-572.1z"/>
</g>
<g id="text_group" transform="translate(48.100063981542576, 379.247025)">
	<path class="st0" d="M128.8-341.9L128.8-341.9c0-3.5,0.8-6.5,2.2-9c1.4-2.5,3.3-4.7,5.6-6.3c2.2-1.7,4.8-2.9,7.7-3.7
		c2.9-0.8,5.9-1.2,8.8-1.2l0,0c3.3,0,6.5,0.5,9.8,1.4c3.3,0.9,6.5,2.6,10,5l0,0l-5.4,5.4c-2.5-1.7-4.8-2.9-7.3-3.5s-5-1-7.5-1l0,0
		c-2,0-3.9,0.3-5.9,0.7s-3.7,1.2-5.4,2.1c-1.6,1-2.9,2.2-3.9,3.9c-0.9,1.7-1.4,3.7-1.4,6.2l0,0c0,3,0.9,5.2,2.7,6.8
		c1.8,1.6,4.2,2.9,6.8,3.9c2.7,1,5.8,2,9,2.7c3.3,0.8,6.3,2,9,3.4s5.1,3.4,6.9,5.9s2.7,5.9,2.7,10.2l0,0c0,3.7-0.7,6.9-1.8,9.7
		c-1.2,2.9-2.9,5.2-5.1,7.2c-2.2,2-4.7,3.5-7.7,4.5c-3,1-6.3,1.6-9.8,1.6l0,0c-3.5,0-6.8-0.5-10-1.6c-3.3-1-6.4-2.7-9.7-5.1l0,0
		l5.2-5.4c2.5,1.7,5.1,2.9,7.6,3.5c2.5,0.7,4.8,1,7.3,1l0,0c1.8,0,3.8-0.4,5.8-1s3.7-1.7,5.4-3c1.6-1.3,2.9-3,3.9-4.8
		c1-2,1.6-4.2,1.6-6.5l0,0c0-3-0.9-5.2-2.7-6.8c-1.8-1.6-4.2-2.7-6.9-3.7c-2.7-0.9-5.8-1.7-9-2.5c-3.3-0.8-6.2-1.8-9-3.3
		c-2.7-1.4-5.1-3.5-6.9-6.2C129.7-333.8,128.8-337.5,128.8-341.9z M231-286l-39.7-39.5l39.7-36.8h10l-39.7,36.8l39.7,39.5H231z
		 M283.6-320.3l-30.9-41.9h9.7l25,33.3l24.7-33.3h9.8l-31,41.9v34.3h-7.5v-34.3H283.6z M373.6-286H366v-41.8h47.8v-34.4h7.5v76.2
		h-7.5v-34.3h-40.2V-286z M447.7-314.1L447.7-314.1v-48.1h7.5v49.1c0,3.9,0.7,7.3,1.8,9.8c1.3,2.5,2.9,4.6,4.7,6
		c2,1.4,4.1,2.5,6.3,3s4.6,0.8,6.7,0.8l0,0c2.5,0,4.8-0.3,7.5-0.8c2.5-0.7,4.7-1.6,6.8-3c2.1-1.4,3.7-3.5,5-6s2-5.9,2-9.8l0,0v-49.1
		h7.5v48.1c0,1.8-0.1,3.9-0.4,6c-0.3,2.1-0.7,4.2-1.4,6.3c-0.7,2.1-1.7,4.1-3,6s-3,3.7-5.1,5.1c-2.1,1.4-4.7,2.6-7.7,3.5
		c-3,0.8-6.7,1.3-10.9,1.3l0,0c-6,0-10.9-0.9-14.4-2.9c-3.5-1.8-6.3-4.2-8.2-7.1c-2-2.7-3.1-5.9-3.7-9.2
		C447.9-308.4,447.7-311.4,447.7-314.1z M566.3-286h-36.4v-7.5h36.3c0.3,0,1-0.1,2.2-0.4c1.2-0.3,2.5-0.8,3.9-1.7
		c1.3-0.8,2.6-2.2,3.7-3.9c1-1.8,1.6-4.2,1.6-7.3l0,0c0-3.1-0.5-5.6-1.6-7.3c-1-1.8-2.4-3.1-3.7-4.1c-1.3-0.9-2.7-1.4-3.9-1.7
		c-1.2-0.3-2.1-0.4-2.2-0.4l0,0H530v-7.5h30.2c0.3,0,1-0.1,2.2-0.4c1.2-0.3,2.5-0.8,3.8-1.8s2.5-2.4,3.5-4.2c1-1.8,1.6-4.3,1.6-7.5
		l0,0c0-3.1-0.7-5.6-1.7-7.5c-1-1.8-2.4-3.1-3.7-3.9c-1.3-0.8-2.6-1.3-3.8-1.6c-1.2-0.3-1.8-0.4-2-0.4l0,0H530v-7.3h30.2
		c0.1,0,0.4,0,0.9,0.1c0.5,0,1.3,0.1,2.1,0.4c0.8,0.1,1.8,0.4,2.9,0.8c1,0.4,2.2,0.9,3.3,1.6l0,0c1,0.7,2.1,1.3,3.1,2.4
		c1,0.9,2.1,2.1,3,3.5c0.8,1.4,1.6,3.1,2.2,5.1s0.8,4.3,0.8,7.1l0,0c0,3.7-0.5,6.8-1.6,9.4c-1,2.6-2.4,4.7-3.9,6.2l0,0
		c1.6,0.5,3,1.3,4.5,2.2c1.4,0.9,2.7,2.2,3.9,3.7c1.2,1.6,2.1,3.4,2.9,5.6c0.8,2.2,1,4.7,1,7.6l0,0c0,2.5-0.3,4.8-0.8,6.8
		c-0.7,2-1.3,3.7-2.2,5c-0.8,1.4-1.8,2.6-3,3.5c-1,1-2.2,1.8-3.3,2.4l0,0c-2.2,1.3-4.2,2.1-6,2.5C568.1-286.1,567-286,566.3-286
		L566.3-286z"/>
</g>
</svg>
